# Wavefront OBJ file automatically generated by Tiled2Unity

# Vertices (Count = 220)
v 0 -2 0
v -1 -2 0
v -1 -1 0
v 0 -1 0
v -2 -2 0
v -2 -1 0
v -3 -2 0
v -3 -1 0
v -4 -2 0
v -4 -1 0
v -5 -2 0
v -5 -1 0
v 0 -3 0
v -1 -3 0
v -3 -3 0
v -4 -3 0
v 0 -4 0
v -1 -4 0
v -3 -4 0
v -4 -4 0
v 0 -5 0
v -1 -5 0
v -2 -5 0
v -2 -4 0
v -3 -5 0
v -4 -5 0
v 0 -6 0
v -1 -6 0
v -2 -6 0
v -3 -6 0
v -4 -6 0
v -5 -6 0
v -5 -5 0
v -6 -6 0
v -6 -5 0
v -7 -6 0
v -8 -6 0
v -8 -5 0
v -7 -5 0
v -9 -6 0
v -9 -5 0
v -2 -7 0
v -3 -7 0
v -4 -7 0
v -5 -7 0
v -6 -7 0
v -7 -7 0
v -8 -7 0
v -9 -7 0
v 0 -8 0
v -1 -8 0
v -1 -7 0
v 0 -7 0
v -2 -8 0
v -3 -8 0
v -4 -8 0
v -5 -8 0
v -6 -8 0
v -7 -8 0
v -8 -8 0
v -9 -8 0
v 0 -9 0
v -1 -9 0
v -2 -9 0
v -3 -9 0
v -4 -9 0
v -5 -9 0
v -6 -9 0
v -7 -9 0
v -8 -9 0
v -9 -9 0
v 0 -10 0
v -1 -10 0
v -2 -10 0
v -6 -10 0
v -7 -10 0
v 0 -11 0
v -1 -11 0
v -2 -11 0
v -4 -11 0
v -5 -11 0
v -5 -10 0
v -4 -10 0
v -6 -11 0
v -7 -11 0
v -8 -11 0
v -8 -10 0
v -9 -11 0
v -9 -10 0
v -4 -13 0
v -5 -13 0
v -5 -12 0
v -4 -12 0
v -6 -13 0
v -6 -12 0
v -7 -13 0
v -7 -12 0
v -8 -13 0
v -8 -12 0
v -9 -13 0
v -9 -12 0
v 0 -14 0
v -1 -14 0
v -1 -13 0
v 0 -13 0
v -7 -14 0
v -8 -14 0
v -9 -14 0
v 0 -15 0
v -1 -15 0
v -2 -15 0
v -2 -14 0
v -3 -15 0
v -3 -14 0
v -4 -15 0
v -4 -14 0
v -5 -15 0
v -5 -14 0
v -6 -15 0
v -6 -14 0
v -7 -15 0
v -8 -15 0
v -9 -15 0
v -3 -16 0
v -4 -16 0
v -7 -16 0
v -8 -16 0
v -9 -16 0
v -3 -17 0
v -4 -17 0
v -5 -17 0
v -6 -17 0
v -6 -16 0
v -5 -16 0
v 0 -18 0
v -1 -18 0
v -1 -17 0
v 0 -17 0
v -2 -18 0
v -2 -17 0
v -3 -18 0
v -4 -18 0
v -5 -18 0
v -6 -18 0
v -7 -18 0
v -7 -17 0
v -8 -18 0
v -8 -17 0
v -9 -18 0
v -9 -17 0
v 0 -19 0
v -1 -19 0
v -8 -19 0
v -9 -19 0
v 0 -20 0
v -1 -20 0
v -2 -20 0
v -2 -19 0
v -3 -20 0
v -3 -19 0
v -4 -20 0
v -4 -19 0
v -5 -20 0
v -5 -19 0
v -6 -20 0
v -6 -19 0
v -7 -20 0
v -7 -19 0
v -8 -20 0
v -9 -20 0
v -4 -21 0
v -5 -21 0
v -1 0 0
v 0 0 0
v -2 0 0
v -3 0 0
v -4 0 0
v -5 0 0
v -6 -1 0
v -6 0 0
v -7 -1 0
v -7 0 0
v -8 -1 0
v -8 0 0
v -9 -1 0
v -9 0 0
v -6 -2 0
v -7 -2 0
v -8 -2 0
v -9 -2 0
v -2 -3 0
v -5 -3 0
v -6 -3 0
v -7 -3 0
v -8 -3 0
v -9 -3 0
v -5 -4 0
v -6 -4 0
v -7 -4 0
v -8 -4 0
v -9 -4 0
v -3 -10 0
v -3 -11 0
v 0 -12 0
v -1 -12 0
v -2 -12 0
v -3 -12 0
v -2 -13 0
v -3 -13 0
v 0 -16 0
v -1 -16 0
v -2 -16 0
v 0 -21 0
v -1 -21 0
v -2 -21 0
v -3 -21 0
v -6 -21 0
v -7 -21 0
v -8 -21 0
v -9 -21 0

# Texture cooridinates (Count = 24)
vt 0.333374 0.500061
vt 0.666626 0.500061
vt 0.666626 0.999939
vt 0.333374 0.999939
vt 0.333374 6.103516E-05
vt 0.666626 6.103516E-05
vt 0.666626 0.499939
vt 0.333374 0.499939
vt 0.6667073 6.103516E-05
vt 0.9999593 6.103516E-05
vt 0.9999593 0.499939
vt 0.6667073 0.499939
vt 4.069011E-05 0.500061
vt 0.3332926 0.500061
vt 0.3332926 0.999939
vt 4.069011E-05 0.999939
vt 0.6667073 0.500061
vt 0.9999593 0.500061
vt 0.9999593 0.999939
vt 0.6667073 0.999939
vt 4.069011E-05 6.103516E-05
vt 0.3332926 6.103516E-05
vt 0.3332926 0.499939
vt 4.069011E-05 0.499939

# Normal
vn 0 0 -1

# Groups (Count = 2)

g mesh_0001
f 1/1/1 2/2/1 3/3/1 4/4/1
f 2/1/1 5/2/1 6/3/1 3/4/1
f 5/1/1 7/2/1 8/3/1 6/4/1
f 7/1/1 9/2/1 10/3/1 8/4/1
f 9/1/1 11/2/1 12/3/1 10/4/1
f 13/1/1 14/2/1 2/3/1 1/4/1
f 15/1/1 16/2/1 9/3/1 7/4/1
f 17/1/1 18/2/1 14/3/1 13/4/1
f 19/1/1 20/2/1 16/3/1 15/4/1
f 21/1/1 22/2/1 18/3/1 17/4/1
f 22/1/1 23/2/1 24/3/1 18/4/1
f 23/1/1 25/2/1 19/3/1 24/4/1
f 25/1/1 26/2/1 20/3/1 19/4/1
f 27/1/1 28/2/1 22/3/1 21/4/1
f 28/1/1 29/2/1 23/3/1 22/4/1
f 29/1/1 30/2/1 25/3/1 23/4/1
f 30/1/1 31/2/1 26/3/1 25/4/1
f 31/5/1 32/6/1 33/7/1 26/8/1
f 32/1/1 34/2/1 35/3/1 33/4/1
f 36/1/1 37/2/1 38/3/1 39/4/1
f 37/1/1 40/2/1 41/3/1 38/4/1
f 42/1/1 43/2/1 30/3/1 29/4/1
f 44/1/1 45/2/1 32/3/1 31/4/1
f 45/1/1 46/2/1 34/3/1 32/4/1
f 47/1/1 48/2/1 37/3/1 36/4/1
f 48/1/1 49/2/1 40/3/1 37/4/1
f 50/1/1 51/2/1 52/3/1 53/4/1
f 51/1/1 54/2/1 42/3/1 52/4/1
f 54/1/1 55/2/1 43/3/1 42/4/1
f 56/1/1 57/2/1 45/3/1 44/4/1
f 57/1/1 58/2/1 46/3/1 45/4/1
f 59/1/1 60/2/1 48/3/1 47/4/1
f 60/1/1 61/2/1 49/3/1 48/4/1
f 62/1/1 63/2/1 51/3/1 50/4/1
f 63/1/1 64/2/1 54/3/1 51/4/1
f 64/1/1 65/2/1 55/3/1 54/4/1
f 66/1/1 67/2/1 57/3/1 56/4/1
f 67/1/1 68/2/1 58/3/1 57/4/1
f 68/1/1 69/2/1 59/3/1 58/4/1
f 69/1/1 70/2/1 60/3/1 59/4/1
f 70/1/1 71/2/1 61/3/1 60/4/1
f 72/1/1 73/2/1 63/3/1 62/4/1
f 73/9/1 74/10/1 64/11/1 63/12/1
f 75/1/1 76/2/1 69/3/1 68/4/1
f 77/1/1 78/2/1 73/3/1 72/4/1
f 78/1/1 79/2/1 74/3/1 73/4/1
f 80/1/1 81/2/1 82/3/1 83/4/1
f 81/1/1 84/2/1 75/3/1 82/4/1
f 84/1/1 85/2/1 76/3/1 75/4/1
f 85/1/1 86/2/1 87/3/1 76/4/1
f 86/1/1 88/2/1 89/3/1 87/4/1
f 90/1/1 91/2/1 92/3/1 93/4/1
f 91/1/1 94/2/1 95/3/1 92/4/1
f 94/1/1 96/2/1 97/3/1 95/4/1
f 96/1/1 98/2/1 99/3/1 97/4/1
f 98/1/1 100/2/1 101/3/1 99/4/1
f 102/1/1 103/2/1 104/3/1 105/4/1
f 106/1/1 107/2/1 98/3/1 96/4/1
f 107/1/1 108/2/1 100/3/1 98/4/1
f 109/1/1 110/2/1 103/3/1 102/4/1
f 110/1/1 111/2/1 112/3/1 103/4/1
f 111/1/1 113/2/1 114/3/1 112/4/1
f 113/1/1 115/2/1 116/3/1 114/4/1
f 115/1/1 117/2/1 118/3/1 116/4/1
f 117/1/1 119/2/1 120/3/1 118/4/1
f 119/1/1 121/2/1 106/3/1 120/4/1
f 121/1/1 122/2/1 107/3/1 106/4/1
f 122/1/1 123/2/1 108/3/1 107/4/1
f 124/1/1 125/2/1 115/3/1 113/4/1
f 126/1/1 127/2/1 122/3/1 121/4/1
f 127/1/1 128/2/1 123/3/1 122/4/1
f 129/1/1 130/2/1 125/3/1 124/4/1
f 131/1/1 132/2/1 133/3/1 134/4/1
f 135/1/1 136/2/1 137/3/1 138/4/1
f 136/1/1 139/2/1 140/3/1 137/4/1
f 139/1/1 141/2/1 129/3/1 140/4/1
f 141/1/1 142/2/1 130/3/1 129/4/1
f 143/1/1 144/2/1 132/3/1 131/4/1
f 144/1/1 145/2/1 146/3/1 132/4/1
f 145/1/1 147/2/1 148/3/1 146/4/1
f 147/1/1 149/2/1 150/3/1 148/4/1
f 151/1/1 152/2/1 136/3/1 135/4/1
f 153/1/1 154/2/1 149/3/1 147/4/1
f 155/1/1 156/2/1 152/3/1 151/4/1
f 156/1/1 157/2/1 158/3/1 152/4/1
f 157/1/1 159/2/1 160/3/1 158/4/1
f 159/1/1 161/2/1 162/3/1 160/4/1
f 161/1/1 163/2/1 164/3/1 162/4/1
f 163/1/1 165/2/1 166/3/1 164/4/1
f 165/1/1 167/2/1 168/3/1 166/4/1
f 167/1/1 169/2/1 153/3/1 168/4/1
f 169/1/1 170/2/1 154/3/1 153/4/1
f 171/1/1 172/2/1 163/3/1 161/4/1

g mesh_0002
f 4/13/1 3/14/1 173/15/1 174/16/1
f 3/13/1 6/14/1 175/15/1 173/16/1
f 6/13/1 8/14/1 176/15/1 175/16/1
f 8/13/1 10/14/1 177/15/1 176/16/1
f 10/17/1 12/18/1 178/19/1 177/20/1
f 12/13/1 179/14/1 180/15/1 178/16/1
f 179/13/1 181/14/1 182/15/1 180/16/1
f 181/13/1 183/14/1 184/15/1 182/16/1
f 183/13/1 185/14/1 186/15/1 184/16/1
f 11/13/1 187/14/1 179/15/1 12/16/1
f 187/13/1 188/14/1 181/15/1 179/16/1
f 188/13/1 189/14/1 183/15/1 181/16/1
f 189/13/1 190/14/1 185/15/1 183/16/1
f 14/13/1 191/14/1 5/15/1 2/16/1
f 191/13/1 15/14/1 7/15/1 5/16/1
f 16/13/1 192/14/1 11/15/1 9/16/1
f 192/13/1 193/14/1 187/15/1 11/16/1
f 193/13/1 194/14/1 188/15/1 187/16/1
f 194/13/1 195/14/1 189/15/1 188/16/1
f 195/13/1 196/14/1 190/15/1 189/16/1
f 18/13/1 24/14/1 191/15/1 14/16/1
f 24/13/1 19/14/1 15/15/1 191/16/1
f 20/13/1 197/14/1 192/15/1 16/16/1
f 197/13/1 198/14/1 193/15/1 192/16/1
f 198/13/1 199/14/1 194/15/1 193/16/1
f 199/13/1 200/14/1 195/15/1 194/16/1
f 200/13/1 201/14/1 196/15/1 195/16/1
f 26/13/1 33/14/1 197/15/1 20/16/1
f 33/13/1 35/14/1 198/15/1 197/16/1
f 35/13/1 39/14/1 199/15/1 198/16/1
f 39/13/1 38/14/1 200/15/1 199/16/1
f 38/13/1 41/14/1 201/15/1 200/16/1
f 34/13/1 36/14/1 39/15/1 35/16/1
f 53/13/1 52/14/1 28/15/1 27/16/1
f 52/13/1 42/14/1 29/15/1 28/16/1
f 43/13/1 44/14/1 31/15/1 30/16/1
f 46/13/1 47/14/1 36/15/1 34/16/1
f 55/13/1 56/14/1 44/15/1 43/16/1
f 58/13/1 59/14/1 47/15/1 46/16/1
f 65/13/1 66/14/1 56/15/1 55/16/1
f 74/13/1 202/14/1 65/15/1 64/16/1
f 202/13/1 83/14/1 66/15/1 65/16/1
f 83/13/1 82/14/1 67/15/1 66/16/1
f 82/13/1 75/14/1 68/15/1 67/16/1
f 76/13/1 87/14/1 70/15/1 69/16/1
f 87/13/1 89/14/1 71/15/1 70/16/1
f 79/13/1 203/14/1 202/15/1 74/16/1
f 203/13/1 80/14/1 83/15/1 202/16/1
f 204/13/1 205/14/1 78/15/1 77/16/1
f 205/13/1 206/14/1 79/15/1 78/16/1
f 206/13/1 207/14/1 203/15/1 79/16/1
f 207/13/1 93/14/1 80/15/1 203/16/1
f 93/17/1 92/18/1 81/19/1 80/20/1
f 92/13/1 95/14/1 84/15/1 81/16/1
f 95/13/1 97/14/1 85/15/1 84/16/1
f 97/13/1 99/14/1 86/15/1 85/16/1
f 99/13/1 101/14/1 88/15/1 86/16/1
f 105/21/1 104/22/1 205/23/1 204/24/1
f 104/13/1 208/14/1 206/15/1 205/16/1
f 208/13/1 209/14/1 207/15/1 206/16/1
f 209/13/1 90/14/1 93/15/1 207/16/1
f 103/13/1 112/14/1 208/15/1 104/16/1
f 112/13/1 114/14/1 209/15/1 208/16/1
f 114/13/1 116/14/1 90/15/1 209/16/1
f 116/13/1 118/14/1 91/15/1 90/16/1
f 118/13/1 120/14/1 94/15/1 91/16/1
f 120/13/1 106/14/1 96/15/1 94/16/1
f 210/13/1 211/14/1 110/15/1 109/16/1
f 211/13/1 212/14/1 111/15/1 110/16/1
f 212/13/1 124/14/1 113/15/1 111/16/1
f 125/13/1 134/14/1 117/15/1 115/16/1
f 134/13/1 133/14/1 119/15/1 117/16/1
f 133/13/1 126/14/1 121/15/1 119/16/1
f 138/13/1 137/14/1 211/15/1 210/16/1
f 137/13/1 140/14/1 212/15/1 211/16/1
f 140/13/1 129/14/1 124/15/1 212/16/1
f 130/13/1 131/14/1 134/15/1 125/16/1
f 132/13/1 146/14/1 126/15/1 133/16/1
f 146/13/1 148/14/1 127/15/1 126/16/1
f 148/13/1 150/14/1 128/15/1 127/16/1
f 142/13/1 143/14/1 131/15/1 130/16/1
f 152/13/1 158/14/1 139/15/1 136/16/1
f 158/13/1 160/14/1 141/15/1 139/16/1
f 160/13/1 162/14/1 142/15/1 141/16/1
f 162/13/1 164/14/1 143/15/1 142/16/1
f 164/13/1 166/14/1 144/15/1 143/16/1
f 166/13/1 168/14/1 145/15/1 144/16/1
f 168/13/1 153/14/1 147/15/1 145/16/1
f 213/13/1 214/14/1 156/15/1 155/16/1
f 214/13/1 215/14/1 157/15/1 156/16/1
f 215/13/1 216/14/1 159/15/1 157/16/1
f 216/13/1 171/14/1 161/15/1 159/16/1
f 172/13/1 217/14/1 165/15/1 163/16/1
f 217/13/1 218/14/1 167/15/1 165/16/1
f 218/13/1 219/14/1 169/15/1 167/16/1
f 219/13/1 220/14/1 170/15/1 169/16/1

